<?xml version="1.0"?>
<svg xmlns="http://www.w3.org/2000/svg" viewBox="0 0 50 50">
    <path style="line-height:normal;text-indent:0;text-align:start;text-decoration-line:none;text-decoration-style:solid;text-decoration-color:#ccc;text-transform:none;block-progression:tb;isolation:auto;mix-blend-mode:normal;fill:orange;" d="M 37.878906 4.6777344 C 36.980995 4.6777509 36.083199 5.0164101 35.404297 5.6953125 L 34.697266 6.4023438 C 33.92173 7.1786771 33.604123 8.2403165 33.714844 9.2617188 C 31.130552 7.8255973 28.161776 7 25 7 C 15.070719 7 7 15.070719 7 25 C 7 34.929281 15.070719 43 25 43 C 34.929281 43 43 34.929281 43 25 C 43 22.194813 42.337713 19.548111 41.189453 17.179688 C 42.366405 17.501484 43.679921 17.219526 44.597656 16.302734 L 45.304688 15.595703 C 46.661896 14.237097 46.662491 12.004289 45.304688 10.646484 L 40.353516 5.6953125 C 39.674213 5.0167075 38.776817 4.6777179 37.878906 4.6777344 z M 37.878906 6.6699219 C 38.262745 6.6699384 38.645756 6.8179331 38.939453 7.1113281 L 43.890625 12.060547 C 44.47682 12.646742 44.475509 13.594247 43.888672 14.181641 L 43.183594 14.888672 C 42.5962 15.475462 41.646742 15.474867 41.060547 14.888672 L 36.111328 9.9394531 C 35.525133 9.353258 35.524538 8.4038 36.111328 7.8164062 L 36.818359 7.109375 C 37.111457 6.8162774 37.495067 6.6699054 37.878906 6.6699219 z M 25 9 C 33.848401 9 41 16.151599 41 25 C 41 33.848401 33.848401 41 25 41 C 16.151599 41 9 33.848401 9 25 C 9 16.151599 16.151599 9 25 9 z M 25 12 C 17.832143 12 12 17.832143 12 25 C 12 32.167857 17.832143 38 25 38 C 32.167857 38 38 32.167857 38 25 C 38 17.832143 32.167857 12 25 12 z M 25 14 C 31.086977 14 36 18.913023 36 25 C 36 31.086977 31.086977 36 25 36 C 18.913023 36 14 31.086977 14 25 C 14 18.913023 18.913023 14 25 14 z M 25 19 C 21.698136 19 19 21.698136 19 25 C 19 28.301864 21.698136 31 25 31 C 28.301864 31 31 28.301864 31 25 C 31 21.698136 28.301864 19 25 19 z M 25 21 C 26.512475 21 27.804082 21.834712 28.484375 23.0625 A 2 2 0 0 0 28 23 A 2 2 0 0 0 26 25 A 2 2 0 0 0 28 27 A 2 2 0 0 0 28.484375 26.939453 C 27.803848 28.166411 26.511857 29 25 29 C 22.779016 29 21 27.220984 21 25 C 21 22.779016 22.779016 21 25 21 z" font-weight="400" font-family="sans-serif" white-space="normal" overflow="visible"/>
</svg>
